<?xml version="1.0" encoding="UTF-8"?>
<svg version="1.1" xmlns="http://www.w3.org/2000/svg" width="256" height="256">
<path d="M0 0 C10.77002322 8.63932311 19.57521125 23.16177333 21.39624023 37.01416016 C21.56974206 40.14615441 21.60635177 43.23863455 21.5625 46.375 C21.54823975 48.02254272 21.54823975 48.02254272 21.53369141 49.70336914 C21.31781604 58.11814095 20.14657547 64.57346139 16 72 C15.33097656 73.32451172 15.33097656 73.32451172 14.6484375 74.67578125 C8.95259119 85.1605933 0.79456708 91.72709229 -9.609375 97.20703125 C-12.89144883 98.88184791 -12.89144883 98.88184791 -15.453125 100.57421875 C-26.71955738 107.44831823 -42.59252275 105.82173469 -54.9921875 103.0703125 C-70.8275626 99.07903482 -82.96756284 90.63130616 -91.43359375 76.62890625 C-98.65159293 63.24240926 -100.12576786 47.56257364 -96.9375 32.75 C-92.04873419 16.43909472 -82.15703668 2.27349164 -67 -6 C-44.76314818 -15.9610693 -19.87578524 -14.79435945 0 0 Z M1 14 C0.67 14.66 0.34 15.32 0 16 C0.66 16 1.32 16 2 16 C1.67 15.34 1.34 14.68 1 14 Z M-86 64 C-85 66 -85 66 -85 66 Z M-59 89 C-59.33 89.66 -59.66 90.32 -60 91 C-59.01 90.67 -58.02 90.34 -57 90 C-57.66 89.67 -58.32 89.34 -59 89 Z M-62 91 C-61.67 91.66 -61.34 92.32 -61 93 C-60.67 92.34 -60.34 91.68 -60 91 C-60.66 91 -61.32 91 -62 91 Z M-41 97 C-41.99 97.495 -41.99 97.495 -43 98 C-43 98.66 -43 99.32 -43 100 C-41.68 99.34 -40.36 98.68 -39 98 C-39.66 97.67 -40.32 97.34 -41 97 Z " fill="#C6CCD3" transform="translate(235,13)"/>
<path d="M0 0 C0.495 0.495 0.495 0.495 1 1 C2.68608966 1.07205511 4.37500659 1.08386068 6.0625 1.0625 C6.98160156 1.05347656 7.90070313 1.04445312 8.84765625 1.03515625 C9.55792969 1.02355469 10.26820313 1.01195312 11 1 C11.495 2.485 11.495 2.485 12 4 C14.64 4 17.28 4 20 4 C20 4.66 20 5.32 20 6 C20.72058594 5.94328125 21.44117188 5.8865625 22.18359375 5.828125 C31.02887196 6.36792006 39.42069448 15.44208688 45.2578125 21.671875 C56.46438562 34.55210701 57.84163849 49.98439321 57.1953125 66.33105469 C56.26025505 79.10861469 48.62668727 90.00066965 40 99 C39.26910156 99.79277344 38.53820312 100.58554688 37.78515625 101.40234375 C29.54815513 109.08482025 19.28738816 115.17771718 7.83203125 114.9375 C4.94209006 114.84505761 4.94209006 114.84505761 2.19140625 116.0546875 C-2.07577206 117.31864974 -5.52768396 116.76604491 -9.875 116.125 C-11.050625 115.96837891 -11.050625 115.96837891 -12.25 115.80859375 C-14.16834175 115.55125522 -16.08444301 115.2773078 -18 115 C-18 114.34 -18 113.68 -18 113 C-18.94875 113.0825 -19.8975 113.165 -20.875 113.25 C-32.04858448 113.13804024 -41.86390336 105.18703314 -49.36328125 97.61328125 C-54.4407342 91.67524305 -57.50288556 85.37002602 -60 78 C-60.24621094 77.29746094 -60.49242187 76.59492188 -60.74609375 75.87109375 C-65.06385406 60.65471088 -62.26179031 42.26572938 -54.8125 28.5625 C-47.84279577 17.69623116 -39.23785062 11.8231301 -28 6 C-27.02933594 5.4534375 -26.05867188 4.906875 -25.05859375 4.34375 C-21.42167482 2.74592099 -18.19258481 2.30354183 -14.25 1.875 C-9.34320151 1.33817176 -4.88822473 -0.25067819 0 0 Z M41 31 C40.67 31.66 40.34 32.32 40 33 C40.99 32.67 41.98 32.34 43 32 C42.34 31.67 41.68 31.34 41 31 Z M38 33 C37.67 33.66 37.34 34.32 37 35 C37.99 34.67 38.98 34.34 40 34 C39.34 33.67 38.68 33.34 38 33 Z M-43 79 C-43.33 79.66 -43.66 80.32 -44 81 C-43.01 80.67 -42.02 80.34 -41 80 C-41.66 79.67 -42.32 79.34 -43 79 Z M-46 81 C-46.99 81.495 -46.99 81.495 -48 82 C-48 82.66 -48 83.32 -48 84 C-46.68 83.34 -45.36 82.68 -44 82 C-44.66 81.67 -45.32 81.34 -46 81 Z M-32 100 C-31.67 100.66 -31.34 101.32 -31 102 C-30.67 101.34 -30.34 100.68 -30 100 C-30.66 100 -31.32 100 -32 100 Z M-3 108 C-3.33 108.66 -3.66 109.32 -4 110 C-3.01 109.67 -2.02 109.34 -1 109 C-1.66 108.67 -2.32 108.34 -3 108 Z " fill="#C6CCD3" transform="translate(199,139)"/>
<path d="M0 0 C0 0.66 0 1.32 0 2 C0.66 1.67 1.32 1.34 2 1 C5.0625 0.875 5.0625 0.875 8 1 C8.495 1.495 8.495 1.495 9 2 C10.34747084 2.23075082 11.70377565 2.41153063 13.0625 2.5625 C14.361875 2.706875 15.66125 2.85125 17 3 C17.495 4.485 17.495 4.485 18 6 C19.051875 6.103125 20.10375 6.20625 21.1875 6.3125 C25.06773849 7.01221514 26.82771975 7.75619202 30 10 C30.58394531 10.38929688 31.16789062 10.77859375 31.76953125 11.1796875 C43.86916928 19.62795547 52.0627948 31.51769042 55.52734375 45.89453125 C58.20399334 63.48078272 53.83863687 78.37743877 44 93 C36.72920661 102.18885545 26.61477374 107.67369418 15.85546875 111.86328125 C13.21838108 112.91306581 10.72679811 114.11181775 8.1875 115.375 C4.1119734 117.2214931 1.40701465 116.91466342 -3 116 C-5.00569659 116.29714023 -7.00822259 116.62061383 -9 117 C-9.33 116.67 -9.66 116.34 -10 116 C-12.01908127 115.77532028 -14.04043815 115.57105109 -16.0625 115.375 C-29.53084951 113.494099 -40.66913438 107.98972445 -50 98 C-50.59296875 97.39027344 -51.1859375 96.78054687 -51.796875 96.15234375 C-61.29376222 85.8327064 -63.56468047 72.75333855 -63.4375 59.125 C-63.42920166 57.97894287 -63.42090332 56.83288574 -63.41235352 55.65209961 C-63.11780737 40.92793695 -58.92892056 29.23444664 -48.75 18.25 C-44.32487587 14.10268636 -39.17859069 11.10419099 -34 8 C-33.31550781 7.51144531 -32.63101563 7.02289063 -31.92578125 6.51953125 C-25.44787846 2.17971818 -18.38975152 1.9656602 -10.81640625 1.359375 C-6.88549356 0.98921741 -3.99593782 -0.10515626 0 0 Z M33 22 C32.67 22.66 32.34 23.32 32 24 C32.66 24 33.32 24 34 24 C33.67 23.34 33.34 22.68 33 22 Z M34.875 31 C34.25625 31.66 33.6375 32.32 33 33 C36.72614153 31.88145414 36.72614153 31.88145414 39 29 C36.75637427 28.7715451 36.75637427 28.7715451 34.875 31 Z M31 33 C30.67 33.66 30.34 34.32 30 35 C30.99 34.67 31.98 34.34 33 34 C32.34 33.67 31.68 33.34 31 33 Z M47 61 C46.67 61.66 46.34 62.32 46 63 C46.99 62.67 47.98 62.34 49 62 C48.34 61.67 47.68 61.34 47 61 Z M-51 79 C-51 79.66 -51 80.32 -51 81 C-47.27385847 79.88145414 -47.27385847 79.88145414 -45 77 C-47.46278801 77 -48.85224119 77.85452863 -51 79 Z M-24 101 C-24.33 101.66 -24.66 102.32 -25 103 C-24.01 102.67 -23.02 102.34 -22 102 C-22.66 101.67 -23.32 101.34 -24 101 Z M-27 103 C-27.33 103.66 -27.66 104.32 -28 105 C-27.01 104.67 -26.02 104.34 -25 104 C-25.66 103.67 -26.32 103.34 -27 103 Z M-6 107 C-6.33 107.66 -6.66 108.32 -7 109 C-6.01 108.67 -5.02 108.34 -4 108 C-4.66 107.67 -5.32 107.34 -6 107 Z M-9 109 C-9.99 110.485 -9.99 110.485 -11 112 C-9.68 111.34 -8.36 110.68 -7 110 C-7.66 109.67 -8.32 109.34 -9 109 Z " fill="#C6CCD3" transform="translate(63,139)"/>
<path d="M0 0 C3.10854455 0.36652988 5.97847156 0.5625 9.125 0.5625 C9.62 1.5525 9.62 1.5525 10.125 2.5625 C11.87103516 2.72878906 11.87103516 2.72878906 13.65234375 2.8984375 C18.73896505 3.42217698 22.38927487 5.53629902 26.6875 8.1875 C27.43692871 8.64261963 28.18635742 9.09773926 28.95849609 9.56665039 C41.8278111 17.56302201 50.44826925 30.04507036 54.375 44.75 C57.71570404 62.05544888 53.16393806 78.3253609 43.5 92.75 C35.16218216 103.22683917 22.54981552 108.99925628 10.3515625 113.66796875 C8.11158709 114.51391315 8.11158709 114.51391315 6.07421875 115.703125 C3.34559909 116.90612365 1.09362587 116.25226208 -1.7734375 115.78515625 C-4.88433856 115.45556264 -7.80524681 116.06131581 -10.875 116.5625 C-11.205 116.2325 -11.535 115.9025 -11.875 115.5625 C-13.52855596 115.30499643 -15.18275734 115.0511077 -16.83959961 114.81567383 C-31.68152785 112.58238939 -45.43530703 106.05554823 -54.828125 94.0703125 C-62.37752236 83.12685835 -64.560425 71.6648587 -64.4375 58.5625 C-64.46134766 57.39460938 -64.48519531 56.22671875 -64.50976562 55.0234375 C-64.48919804 42.65546075 -60.3342344 32.32871411 -52.875 22.5625 C-52.43671875 21.94890625 -51.9984375 21.3353125 -51.546875 20.703125 C-47.31187906 15.20249808 -41.79187544 12.03926239 -35.875 8.5625 C-35.04226562 8.00046875 -34.20953125 7.4384375 -33.3515625 6.859375 C-26.04540418 2.22839465 -19.0591321 1.51347189 -10.62109375 0.88671875 C-0.15731341 -0.01890562 -0.15731341 -0.01890562 0 0 Z M-18.875 5.5625 C-19.865 6.0575 -19.865 6.0575 -20.875 6.5625 C-20.875 7.2225 -20.875 7.8825 -20.875 8.5625 C-19.225 7.9025 -17.575 7.2425 -15.875 6.5625 C-16.865 6.2325 -17.855 5.9025 -18.875 5.5625 Z M21.125 12.5625 C16.67 15.5325 16.67 15.5325 12.125 18.5625 C13.115 19.0575 13.115 19.0575 14.125 19.5625 C16.37824159 18.56832992 16.37824159 18.56832992 18.75 17.125 C19.97589844 16.41537109 19.97589844 16.41537109 21.2265625 15.69140625 C21.85304688 15.31886719 22.47953125 14.94632813 23.125 14.5625 C22.465 13.9025 21.805 13.2425 21.125 12.5625 Z M35.125 26.5625 C34.795 27.2225 34.465 27.8825 34.125 28.5625 C35.115 28.2325 36.105 27.9025 37.125 27.5625 C36.465 27.2325 35.805 26.9025 35.125 26.5625 Z M43.125 44.5625 C42.135 46.0475 42.135 46.0475 41.125 47.5625 C42.445 47.2325 43.765 46.9025 45.125 46.5625 C45.125 45.9025 45.125 45.2425 45.125 44.5625 C44.465 44.5625 43.805 44.5625 43.125 44.5625 Z M39.125 47.5625 C38.795 48.2225 38.465 48.8825 38.125 49.5625 C39.115 49.2325 40.105 48.9025 41.125 48.5625 C40.465 48.2325 39.805 47.9025 39.125 47.5625 Z M-56.875 56.5625 C-56.545 57.2225 -56.215 57.8825 -55.875 58.5625 C-55.215 57.9025 -54.555 57.2425 -53.875 56.5625 C-54.865 56.5625 -55.855 56.5625 -56.875 56.5625 Z M-48.875 74.5625 C-49.205 75.2225 -49.535 75.8825 -49.875 76.5625 C-48.885 76.2325 -47.895 75.9025 -46.875 75.5625 C-47.535 75.2325 -48.195 74.9025 -48.875 74.5625 Z M-51.875 76.5625 C-52.205 77.2225 -52.535 77.8825 -52.875 78.5625 C-51.885 78.2325 -50.895 77.9025 -49.875 77.5625 C-50.535 77.2325 -51.195 76.9025 -51.875 76.5625 Z M-33.875 88.5625 C-34.205 89.2225 -34.535 89.8825 -34.875 90.5625 C-33.885 90.2325 -32.895 89.9025 -31.875 89.5625 C-32.535 89.2325 -33.195 88.9025 -33.875 88.5625 Z M-41.875 93.5625 C-41.875 94.2225 -41.875 94.8825 -41.875 95.5625 C-38.99062221 94.26950306 -37.00280579 92.90308637 -34.875 90.5625 C-37.81771444 90.5625 -39.49000243 91.93065955 -41.875 93.5625 Z M-24.875 107.5625 C-21.60545798 106.99878586 -20.04924117 106.06287734 -17.875 103.5625 C-21.00823425 103.5625 -22.55520784 105.60899081 -24.875 107.5625 Z M-3.875 103.5625 C-4.205 104.2225 -4.535 104.8825 -4.875 105.5625 C-3.885 105.2325 -2.895 104.9025 -1.875 104.5625 C-2.535 104.2325 -3.195 103.9025 -3.875 103.5625 Z M-10.5 107.5625 C-11.61375 108.2225 -12.7275 108.8825 -13.875 109.5625 C-12.15023089 110.51752158 -12.15023089 110.51752158 -9.875 110.5625 C-7.10377725 108.20823501 -7.10377725 108.20823501 -4.875 105.5625 C-7.33801423 105.5625 -8.39563278 106.31546757 -10.5 107.5625 Z " fill="#C5CBD2" transform="translate(63.875,1.4375)"/>
<path d="M0 0 C4.23874862 5.76679134 5.56560827 12.07737178 5.078125 19.1015625 C5.05234375 19.72804687 5.0265625 20.35453125 5 21 C5.33 21.33 5.66 21.66 6 22 C6.23529412 27.52941176 6.23529412 27.52941176 5 30 C4.87064845 31.89428163 4.77080021 33.79063527 4.6875 35.6875 C4.26172002 41.35104952 3.11772282 44.32341577 0 49 C-1.00484883 51.33124929 -2.00522247 53.66443537 -3 56 C-6.71964504 63.62527232 -14.31691838 68.79261831 -22 72 C-24.80399739 72.69112612 -27.57286864 73.17987633 -30.4296875 73.59765625 C-33.22935329 73.97631856 -33.22935329 73.97631856 -36.75 75.125 C-40.30035759 76.0808655 -43.3392889 76.1435573 -47 76 C-49.21081851 75.89459074 -49.21081851 75.89459074 -52 77 C-53.56118428 77.06740865 -55.1250252 77.08514456 -56.6875 77.0625 C-57.49574219 77.05347656 -58.30398437 77.04445313 -59.13671875 77.03515625 C-59.75160156 77.02355469 -60.36648437 77.01195312 -61 77 C-61 76.34 -61 75.68 -61 75 C-61.94875 75.020625 -62.8975 75.04125 -63.875 75.0625 C-67 75 -67 75 -69 74 C-69.33 73.34 -69.66 72.68 -70 72 C-71.97888961 71.27306096 -73.97954558 70.60183749 -76 70 C-75.52470993 65.72238937 -73.2331694 63.65838373 -70 61 C-66.6875 60.1875 -66.6875 60.1875 -64 60 C-64 59.01 -64 58.02 -64 57 C-60.39363767 55.87203602 -57.02855996 55.88583965 -53.265625 55.90234375 C-51.97011719 55.90556641 -50.67460937 55.90878906 -49.33984375 55.91210938 C-47.97656183 55.92046402 -46.61328058 55.92892896 -45.25 55.9375 C-43.87109535 55.94251832 -42.49218896 55.94708065 -41.11328125 55.95117188 C-37.74214341 55.96295907 -34.37109372 55.97941365 -31 56 C-31.33 55.01 -31.66 54.02 -32 53 C-35.96 52.67 -39.92 52.34 -44 52 C-44 47.05 -44 42.1 -44 37 C-42.2365625 37.495 -42.2365625 37.495 -40.4375 38 C-35.01708686 39.31925399 -30.86532784 39.96853561 -25.75 37.3125 C-22.2233917 34.34694302 -20.28426459 32.35702725 -19.71875 27.66796875 C-19.52410352 22.25841869 -20.22112418 18.7472462 -23 14 C-23 13.01 -23 12.02 -23 11 C-20.25 9 -20.25 9 -17 7 C-16.38125 6.525625 -15.7625 6.05125 -15.125 5.5625 C-13.12312528 4.09053329 -11.11870427 2.6451442 -9.0625 1.25 C-8.41410156 0.80140625 -7.76570313 0.3528125 -7.09765625 -0.109375 C-4.25113996 -1.31795175 -2.86667071 -1.12354997 0 0 Z " fill="#C7CDD3" transform="translate(244,173)"/>
<path d="M0 0 C0 0.66 0 1.32 0 2 C0.5775 2.2475 1.155 2.495 1.75 2.75 C8.3705698 6.42809433 12.21457048 13.69095079 16 20 C18.22110412 23.32036242 20.4196263 26.4196263 23.25 29.25 C25.70212351 31.70212351 25.97090541 33.78663964 26.43359375 37.1796875 C25.83352738 42.46675879 23.40083264 45.12323355 20.0625 49.125 C18.8631745 50.61761748 17.66657996 52.1124332 16.47265625 53.609375 C15.8811377 54.34607422 15.28961914 55.08277344 14.68017578 55.84179688 C11.53712931 59.87907249 8.7809481 64.17002148 6 68.4609375 C3.36258397 71.80921957 0.96449089 73.72835033 -3.31640625 74.3203125 C-5.70648282 74.11247976 -7.73973033 73.81763543 -10 73 C-12.0625 70.1875 -12.0625 70.1875 -12.90234375 68.31640625 C-14.3691816 65.22090858 -16.22660476 62.47429089 -18.125 59.625 C-18.80820312 58.58601563 -19.49140625 57.54703125 -20.1953125 56.4765625 C-21.76267426 53.9272108 -21.76267426 53.9272108 -24 53 C-25 51.33333333 -26 49.66666667 -27 48 C-27.66 47.67 -28.32 47.34 -29 47 C-31.38921882 42.63114272 -32.55603 38.42164764 -31.1875 33.5625 C-29.33047063 29.00648304 -26.48285632 25.4801707 -23.31640625 21.75390625 C-21.62928177 19.74813431 -20.03153298 17.74781293 -18.46484375 15.65234375 C-18.03437744 15.07774414 -17.60391113 14.50314453 -17.16040039 13.91113281 C-15.93576981 12.2689881 -14.71390574 10.62478133 -13.4921875 8.98046875 C-9.88557352 4.66722978 -5.94199079 0 0 0 Z " fill="#F06E83" transform="translate(62,160)"/>
<path d="M0 0 C2.078125 1.0703125 2.078125 1.0703125 4 2.3828125 C6.18993519 3.36246502 6.18993519 3.36246502 8.671875 1.953125 C10.11046875 1.08300781 10.11046875 1.08300781 11.578125 0.1953125 C17.70195286 -3.02736126 23.22574985 -4.94393034 30.078125 -2.9296875 C34.87967102 1.12935141 37.54772724 5.88792595 38.578125 12.0703125 C38.34746727 22.07981531 27.76750426 31.01405802 21.05297852 37.61694336 C19.49966287 39.14855156 17.96921814 40.70076471 16.43945312 42.25585938 C15.44399024 43.24868281 14.44728926 44.24026676 13.44921875 45.23046875 C12.56161865 46.11355713 11.67401855 46.99664551 10.75952148 47.90649414 C7.9190382 50.19869148 5.58540883 51.15211311 2.078125 52.0703125 C1.66780029 51.58852539 1.25747559 51.10673828 0.8347168 50.61035156 C-3.60736249 45.45661972 -8.27017691 40.60044057 -13.109375 35.8203125 C-13.80740234 35.12679687 -14.50542969 34.43328125 -15.22460938 33.71875 C-19.23945546 29.73015416 -19.23945546 29.73015416 -23.30078125 25.7890625 C-26.67896482 22.2073739 -28.09084108 17.85068277 -28.359375 13.0078125 C-27.73305301 7.3709146 -25.57181372 4.55525735 -21.421875 0.8203125 C-13.95933475 -4.40346567 -7.99829102 -3.88406218 0 0 Z " fill="#F06C82" transform="translate(191.921875,39.9296875)"/>
<path d="M0 0 C-0.33 0.99 -0.66 1.98 -1 3 C-0.34 3.33 0.32 3.66 1 4 C1 4.66 1 5.32 1 6 C1.61746094 5.6390625 2.23492187 5.278125 2.87109375 4.90625 C8.88332394 1.6118773 13.1933211 0.26678504 20 1 C20.74894531 1.05671875 21.49789062 1.1134375 22.26953125 1.171875 C27.67867793 1.67867793 27.67867793 1.67867793 30 4 C31.0725 4.12375 32.145 4.2475 33.25 4.375 C37.44607818 5.07434636 39.70912572 6.35124753 43 9 C43 9.66 43 10.32 43 11 C41.1015625 12.4375 41.1015625 12.4375 38.625 14 C36.15047838 15.57112484 34.07616959 16.92383041 32 19 C32 18.34 32 17.68 32 17 C31.40574219 17.48210938 30.81148438 17.96421875 30.19921875 18.4609375 C24.61737437 22.71459807 20.4139685 24.63465672 13.484375 25.5546875 C8.84744724 26.38583493 6.02970667 28.68623631 3.1875 32.3125 C1.79697104 35.0667882 1.79697104 35.0667882 1.6875 38.625 C1.460625 39.73875 1.23375 40.8525 1 42 C-1.95582108 43.9277094 -4.66744131 44.8891471 -8 46 C-9.16953416 48.42383077 -9.16953416 48.42383077 -10 51 C-10.33 51.66 -10.66 52.32 -11 53 C-11.06996014 54.70702735 -11.08440154 56.41668003 -11.0625 58.125 C-11.05347656 59.03507812 -11.04445313 59.94515625 -11.03515625 60.8828125 C-11.02355469 61.58148438 -11.01195313 62.28015625 -11 63 C-11.94875 63.433125 -12.8975 63.86625 -13.875 64.3125 C-17.20041937 65.79302201 -17.20041937 65.79302201 -19 69 C-19.99 69 -20.98 69 -22 69 C-22.433125 69.433125 -22.86625 69.86625 -23.3125 70.3125 C-25.57022502 72.57022502 -28.1268443 73.65919401 -31 75 C-34.439538 71.560462 -35.10155218 66.6838199 -36 62 C-35.6875 58.4375 -35.6875 58.4375 -35 56 C-35 54.51283614 -35.02783944 53.02561973 -35.0703125 51.5390625 C-35.08835937 50.57742187 -35.10640625 49.61578125 -35.125 48.625 C-35.14820313 47.66851562 -35.17140625 46.71203125 -35.1953125 45.7265625 C-34.99421867 42.91929267 -34.37033873 41.41390438 -33 39 C-32.87625 38.2575 -32.7525 37.515 -32.625 36.75 C-29.74146707 24.06245509 -18.6366336 12.93199253 -8 6.0625 C-7.34 5.711875 -6.68 5.36125 -6 5 C-6.33 4.01 -6.66 3.02 -7 2 C-4.35261084 0.5393715 -3.10551666 0 0 0 Z " fill="#C7CDD4" transform="translate(42,4)"/>
<path d="M0 0 C10.77002322 8.63932311 19.57521125 23.16177333 21.39624023 37.01416016 C21.56974206 40.14615441 21.60635177 43.23863455 21.5625 46.375 C21.54823975 48.02254272 21.54823975 48.02254272 21.53369141 49.70336914 C21.31781604 58.11814095 20.14657547 64.57346139 16 72 C15.33097656 73.32451172 15.33097656 73.32451172 14.6484375 74.67578125 C8.95259119 85.1605933 0.79456708 91.72709229 -9.609375 97.20703125 C-12.89144883 98.88184791 -12.89144883 98.88184791 -15.453125 100.57421875 C-26.71955738 107.44831823 -42.59252275 105.82173469 -54.9921875 103.0703125 C-70.8275626 99.07903482 -82.96756284 90.63130616 -91.43359375 76.62890625 C-98.65159293 63.24240926 -100.12576786 47.56257364 -96.9375 32.75 C-92.04873419 16.43909472 -82.15703668 2.27349164 -67 -6 C-44.76314818 -15.9610693 -19.87578524 -14.79435945 0 0 Z M-80.21875 13.41796875 C-88.77102579 25.81501765 -91.41538036 37.06938383 -91 52 C-90.34 52 -89.68 52 -89 52 C-89.3403125 53.2684375 -89.3403125 53.2684375 -89.6875 54.5625 C-90.01122087 58.12342958 -89.44692498 59.89972899 -87.88671875 63.0625 C-86.55979854 65.9618499 -85.78176313 69.01129322 -84.94140625 72.08203125 C-83.73352077 74.54290996 -82.43048667 74.87486489 -80 76 C-79.25 78.625 -79.25 78.625 -79 81 C-78.01 81 -77.02 81 -76 81 C-75.92394531 81.58394531 -75.84789062 82.16789062 -75.76953125 82.76953125 C-74.73739349 85.76115897 -73.1956937 86.7950658 -70.6875 88.6875 C-69.90761719 89.28949219 -69.12773437 89.89148438 -68.32421875 90.51171875 C-66.13441114 92.09316977 -66.13441114 92.09316977 -63.83203125 92.51953125 C-62 93 -62 93 -60 96 C-57.6859378 96.73075648 -55.35171131 97.40138258 -53 98 C-52.67 98.33 -52.34 98.66 -52 99 C-48.01714791 99.53148438 -44.00938281 99.75452758 -40 100 C-39.14277344 100.05542969 -38.28554687 100.11085938 -37.40234375 100.16796875 C-24.35724337 100.6134112 -13.54442203 96.11409717 -3.8125 87.6875 C2.47818273 81.79731105 6.90930726 76.03580113 10 68 C10.32226562 67.43152344 10.64453125 66.86304687 10.9765625 66.27734375 C12.41769981 63.07053822 13.0016255 59.75063782 13.625 56.3125 C13.75471191 55.59715088 13.88442383 54.88180176 14.01806641 54.14477539 C15.44627931 45.89277462 15.75619803 39.80133437 12 32 C11.71125 30.88625 11.4225 29.7725 11.125 28.625 C9.34533003 22.89050787 7.08227782 17.38818522 2 14 C0.98133771 12.34467377 -0.01810813 10.67739862 -1 9 C-2.39585785 7.18523997 -2.39585785 7.18523997 -4 6 C-4.99 6 -5.98 6 -7 6 C-7 5.01 -7 4.02 -7 3 C-8.98 2.34 -10.96 1.68 -13 1 C-13 0.34 -13 -0.32 -13 -1 C-36.85796812 -10.98539772 -63.15195671 -7.22851211 -80.21875 13.41796875 Z " fill="#2A2A2B" transform="translate(235,13)"/>
<path d="M0 0 C0.9075 0.165 1.815 0.33 2.75 0.5 C5 1 5 1 7 3 C6.5625 5.25 6.5625 5.25 5 8 C1.6619213 9.97508248 -2.06212362 12 -6 12 C-6.33 12.99 -6.66 13.98 -7 15 C-8.78515625 15.6328125 -8.78515625 15.6328125 -11.0625 16.125 C-17.20264641 17.99331713 -20.17553824 22.06039744 -24 27 C-24.59683594 27.73863281 -25.19367187 28.47726563 -25.80859375 29.23828125 C-27.58231617 31.46234744 -29.29688215 33.72150449 -31 36 C-31.63421875 36.82757813 -32.2684375 37.65515625 -32.921875 38.5078125 C-36.68794729 43.59667878 -39.24719513 47.65493042 -40 54 C-39.22772827 56.76740335 -39.22772827 56.76740335 -38 59 C-38 59.99 -38 60.98 -38 62 C-37.34 62.33 -36.68 62.66 -36 63 C-38.97 63.495 -38.97 63.495 -42 64 C-42.33 64.99 -42.66 65.98 -43 67 C-45 68 -45 68 -47.1875 68.3125 C-49.83205655 68.95894716 -51.29537983 69.70926616 -53.5625 71.125 C-57 73 -57 73 -59.4375 72.75 C-60.2109375 72.37875 -60.2109375 72.37875 -61 72 C-62.125 68.25 -62.125 68.25 -61 66 C-61.66 66 -62.32 66 -63 66 C-65.44067583 59.4406837 -65.41770071 52.94548862 -65 46 C-64.67 45.34 -64.34 44.68 -64 44 C-64.020625 43.01 -64.04125 42.02 -64.0625 41 C-64 38 -64 38 -62 36 C-61.54134713 34.10099481 -61.54134713 34.10099481 -61.25 31.9375 C-58.92819918 20.9265355 -49.75878589 12.08063409 -40.86328125 5.77734375 C-32.62429871 0.67991667 -32.62429871 0.67991667 -27 2 C-25.17046467 1.26564159 -25.17046467 1.26564159 -23.5 0.0625 C-16.1838123 -3.95723051 -7.55689347 -2.74602608 0 0 Z " fill="#C6CCD3" transform="translate(71,145)"/>
<path d="M0 0 C3.31671656 1.10557219 5.09978088 2.73467114 7.63671875 5.12890625 C8.50683594 5.94230469 9.37695312 6.75570312 10.2734375 7.59375 C12.75623038 9.99446709 15.19467824 12.43686574 17.63671875 14.87890625 C18.46171875 15.45640625 19.28671875 16.03390625 20.13671875 16.62890625 C24.34700149 20.41816071 27.1078421 24.8469841 28.08984375 30.4765625 C28.32614309 36.07179334 27.50156991 39.60722865 23.63671875 43.87890625 C20.42013084 46.59513604 18.44813098 47.77372318 14.26171875 48.31640625 C9.94246305 47.79511677 6.63968918 46.56436748 2.63671875 44.87890625 C2.63671875 49.82890625 2.63671875 54.77890625 2.63671875 59.87890625 C6.59671875 59.87890625 10.55671875 59.87890625 14.63671875 59.87890625 C15.13171875 61.85890625 15.13171875 61.85890625 15.63671875 63.87890625 C12.76653434 65.31399846 10.30128152 64.99049131 7.09765625 64.9765625 C5.14472656 64.97172852 5.14472656 64.97172852 3.15234375 64.96679688 C1.77213476 64.95844091 0.39192643 64.94997596 -0.98828125 64.94140625 C-2.37630051 64.93639126 -3.76432147 64.93182835 -5.15234375 64.92773438 C-8.55603257 64.91591601 -11.95963564 64.89944059 -15.36328125 64.87890625 C-15.36328125 63.88890625 -15.36328125 62.89890625 -15.36328125 61.87890625 C-11.93396054 60.16424589 -8.1461206 60.82486569 -4.36328125 60.87890625 C-4.03328125 55.26890625 -3.70328125 49.65890625 -3.36328125 43.87890625 C-5.67328125 44.86890625 -7.98328125 45.85890625 -10.36328125 46.87890625 C-15.30613756 47.54511732 -21.1291059 47.74320134 -25.36328125 44.87890625 C-28.97563797 40.19260563 -30.16761955 36.26414636 -29.84765625 30.3359375 C-28.94826453 25.77370048 -26.52513854 23.18299242 -23.36328125 19.87890625 C-22.82670898 19.31494141 -22.29013672 18.75097656 -21.73730469 18.16992188 C-18.66659119 14.96240257 -15.56238902 11.7876489 -12.41015625 8.66015625 C-11.87229492 8.12455078 -11.33443359 7.58894531 -10.78027344 7.03710938 C-9.36328125 5.87890625 -9.36328125 5.87890625 -7.36328125 5.87890625 C-7.36328125 5.21890625 -7.36328125 4.55890625 -7.36328125 3.87890625 C-3.31453911 -0.16983589 -3.31453911 -0.16983589 0 0 Z " fill="#494F58" transform="translate(197.36328125,165.12109375)"/>
<path d="M0 0 C0 0.66 0 1.32 0 2 C0.763125 2.268125 1.52625 2.53625 2.3125 2.8125 C4.9824929 3.99226431 6.18997686 4.76832374 8 7 C8.44921875 9.05078125 8.44921875 9.05078125 8.6875 11.3125 C9.4493774 15.35833171 10.59552944 16.92189332 13.9375 19.3125 C14.62714844 19.74175781 15.31679687 20.17101562 16.02734375 20.61328125 C19.07176237 22.75341711 20.67343372 25.42850901 22.5 28.625 C23.29131137 33.96635173 20.94000785 37.63113337 18 42 C14.16559468 45.9279274 11.09927315 46.22969512 5.8125 46.3125 C2.52609929 46.23395709 0.12844669 46.04281556 -3 45 C-3.33 49.95 -3.66 54.9 -4 60 C0.29 60 4.58 60 9 60 C8.67 60.99 8.34 61.98 8 63 C-2.36503256 63.91987611 -12.60330359 64.1132812 -23 64 C-22.34 62.68 -21.68 61.36 -21 60 C-17.37 60 -13.74 60 -10 60 C-10.08378906 59.10796875 -10.16757812 58.2159375 -10.25390625 57.296875 C-10.35574219 56.12640625 -10.45757812 54.9559375 -10.5625 53.75 C-10.66691406 52.58984375 -10.77132812 51.4296875 -10.87890625 50.234375 C-10.98198087 47.48128523 -10.86213473 45.580018 -10 43 C-10.78375 43.495 -11.5675 43.99 -12.375 44.5 C-17.052347 46.43545393 -21.00059562 46.75600749 -26 46 C-29.4375 44.125 -29.4375 44.125 -32 42 C-32.99 41.34 -33.98 40.68 -35 40 C-36.45083502 35.64749493 -36.85342929 31.41886245 -35.31640625 27.0625 C-33.0691962 22.73592131 -30.36121099 20.31979308 -26 18 C-25.01 18 -24.02 18 -23 18 C-23.061875 16.948125 -23.12375 15.89625 -23.1875 14.8125 C-22.92947931 9.56607936 -21.43413008 7.32090929 -17.625 3.8125 C-11.75651286 -0.23955064 -6.9545262 -0.24307082 0 0 Z " fill="#2D2E2E" transform="translate(66,28)"/>
<path d="M0 0 C3.10854455 0.36652988 5.97847156 0.5625 9.125 0.5625 C9.62 1.5525 9.62 1.5525 10.125 2.5625 C11.87103516 2.72878906 11.87103516 2.72878906 13.65234375 2.8984375 C18.73896505 3.42217698 22.38927487 5.53629902 26.6875 8.1875 C27.43692871 8.64261963 28.18635742 9.09773926 28.95849609 9.56665039 C41.8278111 17.56302201 50.44826925 30.04507036 54.375 44.75 C57.71570404 62.05544888 53.16393806 78.3253609 43.5 92.75 C35.16218216 103.22683917 22.54981552 108.99925628 10.3515625 113.66796875 C8.11158709 114.51391315 8.11158709 114.51391315 6.07421875 115.703125 C3.34559909 116.90612365 1.09362587 116.25226208 -1.7734375 115.78515625 C-4.88433856 115.45556264 -7.80524681 116.06131581 -10.875 116.5625 C-11.205 116.2325 -11.535 115.9025 -11.875 115.5625 C-13.52855596 115.30499643 -15.18275734 115.0511077 -16.83959961 114.81567383 C-31.68152785 112.58238939 -45.43530703 106.05554823 -54.828125 94.0703125 C-62.37752236 83.12685835 -64.560425 71.6648587 -64.4375 58.5625 C-64.46134766 57.39460938 -64.48519531 56.22671875 -64.50976562 55.0234375 C-64.48919804 42.65546075 -60.3342344 32.32871411 -52.875 22.5625 C-52.43671875 21.94890625 -51.9984375 21.3353125 -51.546875 20.703125 C-46.09550435 13.6226091 -37.3732458 8.21820181 -28.875 5.5625 C-27.885 6.2225 -26.895 6.8825 -25.875 7.5625 C-26.55304687 7.94019531 -27.23109375 8.31789063 -27.9296875 8.70703125 C-39.22126697 15.38501523 -49.81750146 25.71375461 -53.875 38.5625 C-54.22078768 40.56038438 -54.55643549 42.56009451 -54.875 44.5625 C-55.37 45.0575 -55.37 45.0575 -55.875 45.5625 C-57.37613059 59.32286375 -56.54844186 69.86479678 -50.875 82.5625 C-50.875 83.2225 -50.875 83.8825 -50.875 84.5625 C-50.215 84.5625 -49.555 84.5625 -48.875 84.5625 C-48.4625 85.67625 -48.05 86.79 -47.625 87.9375 C-46.22368655 91.2739606 -45.14778793 92.03519897 -41.875 93.5625 C-41.6584375 94.8 -41.6584375 94.8 -41.4375 96.0625 C-41.251875 96.8875 -41.06625 97.7125 -40.875 98.5625 C-38.57965742 99.69795562 -38.57965742 99.69795562 -35.875 100.5625 C-35.1325 101.18125 -34.39 101.8 -33.625 102.4375 C-30.5020302 104.85070394 -27.39098928 106.2239018 -23.765625 107.73046875 C-21.875 108.5625 -21.875 108.5625 -20.875 109.5625 C-9.23509189 110.41488223 1.02719814 108.99088899 12.125 105.5625 C12.80433594 105.35931152 13.48367187 105.15612305 14.18359375 104.94677734 C26.68469177 101.18049663 34.19003215 96.95675982 41.125 85.5625 C42.12556264 83.19721234 42.90686594 80.91929528 43.5546875 78.4375 C44.125 76.5625 44.125 76.5625 46.125 73.5625 C47.68440421 64.67389602 47.21231749 55.55620167 47.125 46.5625 C46.465 46.5625 45.805 46.5625 45.125 46.5625 C45.02703125 46.005625 44.9290625 45.44875 44.828125 44.875 C43.43368489 37.75854701 41.38516356 31.6929609 36.125 26.5625 C35.83625 25.94375 35.5475 25.325 35.25 24.6875 C32.55736468 19.60141107 28.0407913 16.68819237 23.234375 13.82421875 C21.82933312 12.98379555 20.44316429 12.11097902 19.078125 11.20703125 C10.12626108 5.29116769 -0.27171641 3.76400404 -10.875 4.5625 C-12.27938135 4.85775385 -13.67653258 5.19026875 -15.0625 5.5625 C-18.54720582 6.4765212 -21.30258402 6.7411208 -24.875 6.5625 C-23.84765625 4.63671875 -23.84765625 4.63671875 -21.875 2.5625 C-19.25951936 1.97059078 -16.95652218 1.59762817 -14.3125 1.375 C-0.29739178 -0.03573996 -0.29739178 -0.03573996 0 0 Z " fill="#2C2C2C" transform="translate(63.875,1.4375)"/>
<path d="M0 0 C0.495 0.495 0.495 0.495 1 1 C2.68608966 1.07205511 4.37500659 1.08386068 6.0625 1.0625 C6.98160156 1.05347656 7.90070313 1.04445312 8.84765625 1.03515625 C9.55792969 1.02355469 10.26820313 1.01195312 11 1 C11.495 2.485 11.495 2.485 12 4 C14.64 4 17.28 4 20 4 C20 4.66 20 5.32 20 6 C20.72058594 5.94328125 21.44117188 5.8865625 22.18359375 5.828125 C31.02887196 6.36792006 39.42069448 15.44208688 45.2578125 21.671875 C56.46438562 34.55210701 57.84163849 49.98439321 57.1953125 66.33105469 C56.26025505 79.10861469 48.62668727 90.00066965 40 99 C39.26910156 99.79277344 38.53820312 100.58554688 37.78515625 101.40234375 C29.54815513 109.08482025 19.28738816 115.17771718 7.83203125 114.9375 C4.94209006 114.84505761 4.94209006 114.84505761 2.19140625 116.0546875 C-2.07577206 117.31864974 -5.52768396 116.76604491 -9.875 116.125 C-11.050625 115.96837891 -11.050625 115.96837891 -12.25 115.80859375 C-14.16834175 115.55125522 -16.08444301 115.2773078 -18 115 C-18 114.34 -18 113.68 -18 113 C-18.94875 113.0825 -19.8975 113.165 -20.875 113.25 C-32.04858448 113.13804024 -41.86390336 105.18703314 -49.36328125 97.61328125 C-54.4407342 91.67524305 -57.50288556 85.37002602 -60 78 C-60.24621094 77.29746094 -60.49242187 76.59492188 -60.74609375 75.87109375 C-65.06385406 60.65471088 -62.26179031 42.26572938 -54.8125 28.5625 C-47.84279577 17.69623116 -39.23785062 11.8231301 -28 6 C-27.02933594 5.4534375 -26.05867188 4.906875 -25.05859375 4.34375 C-21.42167482 2.74592099 -18.19258481 2.30354183 -14.25 1.875 C-9.34320151 1.33817176 -4.88822473 -0.25067819 0 0 Z M-15 6 C-16.39343888 6.26301858 -17.78968171 6.5113481 -19.1875 6.75 C-28.803325 8.83555145 -37.72862702 15.59302767 -44 23 C-46.81241749 27.47820683 -49.06078671 32.26026042 -51.1652832 37.10498047 C-51.95267777 38.8925665 -52.82176181 40.64352362 -53.6953125 42.390625 C-55.3363607 46.93053079 -55.49283966 50.83606092 -55.4375 55.625 C-55.43355225 56.50148193 -55.42960449 57.37796387 -55.42553711 58.28100586 C-55.26145866 65.76202203 -53.78527848 72.03121086 -51 79 C-50.67 79.99 -50.34 80.98 -50 82 C-49.34 82 -48.68 82 -48 82 C-47.79375 83.010625 -47.5875 84.02125 -47.375 85.0625 C-46.11131751 89.54948857 -43.45363805 92.9123725 -40 96 C-39.34 96 -38.68 96 -38 96 C-37.7525 96.61875 -37.505 97.2375 -37.25 97.875 C-35.76718549 100.39578467 -34.59136042 100.7852998 -32 102 C-31.34 102.99 -30.68 103.98 -30 105 C-26.93443402 105.73343428 -26.93443402 105.73343428 -24 106 C-24 106.66 -24 107.32 -24 108 C-21.29120665 109.35439668 -18.99066732 109.06501451 -16 109 C-16 109.66 -16 110.32 -16 111 C-12.7074137 110.9177535 -9.41649988 110.80505357 -6.125 110.6875 C-5.2071875 110.66494141 -4.289375 110.64238281 -3.34375 110.61914062 C2.35831961 110.39828582 7.30982167 109.55701661 12.71533203 107.71142578 C15.13762106 106.957146 17.49161009 106.54975974 20 106.1875 C28.92007562 104.47641631 35.81205464 99.31500295 41 92 C43.55644392 88.21267567 45.23976111 84.20926692 47 80 C47.50273437 79.09507812 47.50273437 79.09507812 48.015625 78.171875 C52.62098998 68.01083164 52.5210384 51.95030893 48.73046875 41.5 C47.28114268 38.56465607 45.71375807 35.78754132 44 33 C43.24818078 31.60514569 42.49787458 30.20947327 41.75 28.8125 C40.29691186 25.93047446 40.29691186 25.93047446 38 25 C37.4121875 23.9171875 37.4121875 23.9171875 36.8125 22.8125 C33.9059985 18.30241147 30.27014613 14.67621374 25.0625 13.125 C24.381875 13.08375 23.70125 13.0425 23 13 C22.505 11.515 22.505 11.515 22 10 C11.41519855 4.70759927 -3.74643661 0.80604767 -15 6 Z " fill="#2B2B2B" transform="translate(199,139)"/>
<path d="M0 0 C0 0.66 0 1.32 0 2 C0.66 1.67 1.32 1.34 2 1 C5.0625 0.875 5.0625 0.875 8 1 C8.495 1.495 8.495 1.495 9 2 C10.34747084 2.23075082 11.70377565 2.41153063 13.0625 2.5625 C14.361875 2.706875 15.66125 2.85125 17 3 C17.495 4.485 17.495 4.485 18 6 C19.051875 6.103125 20.10375 6.20625 21.1875 6.3125 C25.06773849 7.01221514 26.82771975 7.75619202 30 10 C30.58394531 10.38929688 31.16789062 10.77859375 31.76953125 11.1796875 C43.86916928 19.62795547 52.0627948 31.51769042 55.52734375 45.89453125 C58.20399334 63.48078272 53.83863687 78.37743877 44 93 C36.10898915 102.97268856 21.79618431 112.31557659 9 114 C7.515 113.01 7.515 113.01 6 112 C7.8871875 111.443125 7.8871875 111.443125 9.8125 110.875 C24.00017004 106.11598627 34.32627946 97.96677612 41.22265625 84.63671875 C42.21735891 82.44686005 43.11470134 80.23589382 44 78 C44.556875 76.824375 45.11375 75.64875 45.6875 74.4375 C49.06783936 65.22007191 48.48873089 53.5278777 47 44 C46.34 44 45.68 44 45 44 C44.71125 42.96875 44.4225 41.9375 44.125 40.875 C43.75031182 39.58324285 43.37530801 38.29157721 43 37 C42.690625 35.906875 42.38125 34.81375 42.0625 33.6875 C41.1798225 30.70833515 41.1798225 30.70833515 38 29 C37.7834375 27.7625 37.7834375 27.7625 37.5625 26.5 C37.376875 25.675 37.19125 24.85 37 24 C35.03327085 22.8499169 35.03327085 22.8499169 33 22 C32.505 20.515 32.505 20.515 32 19 C30.27075878 17.98855702 28.5368353 16.98288044 26.765625 16.046875 C25 15 25 15 22.9375 12.8125 C20.41502211 10.45276262 18.37705057 10.3070046 15 10 C15 9.34 15 8.68 15 8 C4.01542743 4.97969199 -7.02752783 2.77077189 -17.90234375 7.24609375 C-20 8 -20 8 -22.921875 8.41015625 C-33.51201144 10.43948443 -43.06034929 20.38132127 -48.9375 29 C-51.0255624 32.56114752 -51.89968028 36.05952178 -52.54296875 40.1171875 C-53 42 -53 42 -55 44 C-55.04092937 46.33297433 -55.04241723 48.66705225 -55 51 C-55.495 51.495 -55.495 51.495 -56 52 C-56.33093645 58.71606334 -56.23096866 65.38354345 -55 72 C-54.34 72 -53.68 72 -53 72 C-53.0928125 73.11375 -53.0928125 73.11375 -53.1875 74.25 C-52.9631595 77.54032736 -51.9513873 78.42416876 -50 81 C-49.3125 84.25 -49.3125 84.25 -49 87 C-48.01 87.33 -47.02 87.66 -46 88 C-45.30062468 89.31647119 -44.63270867 90.65022151 -44 92 C-43.34 92.33 -42.68 92.66 -42 93 C-41.649375 93.721875 -41.29875 94.44375 -40.9375 95.1875 C-37.51094349 100.16153364 -31.97535612 103.85665168 -26 105 C-26 105.99 -26 106.98 -26 108 C-17.11343869 110.70460562 -8.25631203 112.25161733 1 113 C0.505 114.485 0.505 114.485 0 116 C-1.47831221 116.19412181 -2.95769316 116.38012131 -4.4375 116.5625 C-5.26121094 116.66691406 -6.08492187 116.77132812 -6.93359375 116.87890625 C-7.95646484 116.93884766 -7.95646484 116.93884766 -9 117 C-9.33 116.67 -9.66 116.34 -10 116 C-12.01908127 115.77532028 -14.04043815 115.57105109 -16.0625 115.375 C-29.53084951 113.494099 -40.66913438 107.98972445 -50 98 C-50.59296875 97.39027344 -51.1859375 96.78054687 -51.796875 96.15234375 C-61.29376222 85.8327064 -63.56468047 72.75333855 -63.4375 59.125 C-63.42920166 57.97894287 -63.42090332 56.83288574 -63.41235352 55.65209961 C-63.11780737 40.92793695 -58.92892056 29.23444664 -48.75 18.25 C-44.32487587 14.10268636 -39.17859069 11.10419099 -34 8 C-33.31550781 7.51144531 -32.63101563 7.02289063 -31.92578125 6.51953125 C-25.44787846 2.17971818 -18.38975152 1.9656602 -10.81640625 1.359375 C-6.88549356 0.98921741 -3.99593782 -0.10515626 0 0 Z " fill="#2D2D2D" transform="translate(63,139)"/>
<path d="M0 0 C3.31671656 1.10557219 5.09978088 2.73467114 7.63671875 5.12890625 C8.50683594 5.94230469 9.37695312 6.75570312 10.2734375 7.59375 C12.75623038 9.99446709 15.19467824 12.43686574 17.63671875 14.87890625 C18.46171875 15.45640625 19.28671875 16.03390625 20.13671875 16.62890625 C24.34700149 20.41816071 27.1078421 24.8469841 28.08984375 30.4765625 C28.32614309 36.07179334 27.50156991 39.60722865 23.63671875 43.87890625 C20.42013084 46.59513604 18.44813098 47.77372318 14.26171875 48.31640625 C9.94246305 47.79511677 6.63968918 46.56436748 2.63671875 44.87890625 C2.63671875 49.82890625 2.63671875 54.77890625 2.63671875 59.87890625 C6.59671875 59.87890625 10.55671875 59.87890625 14.63671875 59.87890625 C15.13171875 61.85890625 15.13171875 61.85890625 15.63671875 63.87890625 C12.76653434 65.31399846 10.30128152 64.99049131 7.09765625 64.9765625 C5.14472656 64.97172852 5.14472656 64.97172852 3.15234375 64.96679688 C1.77213476 64.95844091 0.39192643 64.94997596 -0.98828125 64.94140625 C-2.37630051 64.93639126 -3.76432147 64.93182835 -5.15234375 64.92773438 C-8.55603257 64.91591601 -11.95963564 64.89944059 -15.36328125 64.87890625 C-15.36328125 63.88890625 -15.36328125 62.89890625 -15.36328125 61.87890625 C-11.93396054 60.16424589 -8.1461206 60.82486569 -4.36328125 60.87890625 C-4.03328125 55.26890625 -3.70328125 49.65890625 -3.36328125 43.87890625 C-5.67328125 44.86890625 -7.98328125 45.85890625 -10.36328125 46.87890625 C-15.30613756 47.54511732 -21.1291059 47.74320134 -25.36328125 44.87890625 C-28.97563797 40.19260563 -30.16761955 36.26414636 -29.84765625 30.3359375 C-28.94826453 25.77370048 -26.52513854 23.18299242 -23.36328125 19.87890625 C-22.82670898 19.31494141 -22.29013672 18.75097656 -21.73730469 18.16992188 C-18.66659119 14.96240257 -15.56238902 11.7876489 -12.41015625 8.66015625 C-11.87229492 8.12455078 -11.33443359 7.58894531 -10.78027344 7.03710938 C-9.36328125 5.87890625 -9.36328125 5.87890625 -7.36328125 5.87890625 C-7.36328125 5.21890625 -7.36328125 4.55890625 -7.36328125 3.87890625 C-3.31453911 -0.16983589 -3.31453911 -0.16983589 0 0 Z M-7.36328125 10.87890625 C-9.09744689 12.79539249 -10.7786814 14.74989874 -12.453125 16.71875 C-15.07063969 19.6788433 -17.90068922 22.39423855 -20.76171875 25.1171875 C-23.16529264 27.76111878 -23.36099257 29.84686477 -23.61328125 33.37890625 C-23.6797107 36.77725749 -23.6797107 36.77725749 -22.05078125 38.69140625 C-17.72686976 41.73415878 -14.62057344 42.72205688 -9.36328125 41.87890625 C-6.70644936 40.38141918 -4.51675374 39.03237874 -2.36328125 36.87890625 C-0.23828125 36.44140625 -0.23828125 36.44140625 2.63671875 36.87890625 C4.3125 38.18359375 4.3125 38.18359375 6.07421875 39.81640625 C9.18142373 42.65400559 11.2548508 44.06942225 15.63671875 43.87890625 C18.38388262 42.10851176 20.16817797 40.81598781 21.63671875 37.87890625 C22.67513987 30.73976106 20.27126018 26.9221624 16.36328125 21.00390625 C15.79351562 20.30265625 15.22375 19.60140625 14.63671875 18.87890625 C13.97671875 18.87890625 13.31671875 18.87890625 12.63671875 18.87890625 C12.29447266 18.02039063 12.29447266 18.02039063 11.9453125 17.14453125 C10.2858247 14.2713882 8.29382217 12.68630104 5.69921875 10.62890625 C4.82394531 9.9225 3.94867188 9.21609375 3.046875 8.48828125 C-1.60538713 5.38174641 -3.63502641 7.48958367 -7.36328125 10.87890625 Z " fill="#2F2F2F" transform="translate(197.36328125,165.12109375)"/>
<path d="M0 0 C2.71889643 1.69931027 3.7049114 2.82908845 4.48828125 5.9375 C5.00358219 9.31489411 5.08610318 11.74169046 4 15 C5.03125 15.061875 6.0625 15.12375 7.125 15.1875 C11.86075553 16.180481 13.81466749 17.35961999 17 21 C18.10516658 24.09671043 18.41888737 26.73739835 18 30 C16.25 33.0625 16.25 33.0625 13 35 C9.20289089 35.67865613 5.79138163 35.73494475 2 35 C-0.6875 32.75 -0.6875 32.75 -2 30 C-2 28.68 -2 27.36 -2 26 C-3.65 26.33 -5.3 26.66 -7 27 C-7.2475 28.11375 -7.495 29.2275 -7.75 30.375 C-9 34 -9 34 -10.76171875 35.20703125 C-13.31085204 36.11012734 -15.36087556 36.30027546 -18.0625 36.3125 C-18.91972656 36.32925781 -19.77695312 36.34601563 -20.66015625 36.36328125 C-24.124793 35.82536603 -25.24912158 34.01368587 -27.25 31.3125 C-28.40289376 27.75774424 -27.94703616 24.53560167 -27 21 C-25.4375 18.0625 -25.4375 18.0625 -23 16 C-20.2662187 15.29956655 -17.84600948 15.14230047 -15 15 C-15.03480469 14.41992188 -15.06960937 13.83984375 -15.10546875 13.2421875 C-15.28528753 8.05313134 -15.00536105 4.45238674 -12 0 C-7.81558918 -1.39480361 -4.26935526 -0.97276449 0 0 Z " fill="#4B515A" transform="translate(64,33)"/>
<path d="M0 0 C0 0.66 0 1.32 0 2 C0.5775 2.2475 1.155 2.495 1.75 2.75 C8.3705698 6.42809433 12.21457048 13.69095079 16 20 C18.22110412 23.32036242 20.4196263 26.4196263 23.25 29.25 C25.70212351 31.70212351 25.97090541 33.78663964 26.43359375 37.1796875 C25.83352738 42.46675879 23.40083264 45.12323355 20.0625 49.125 C18.8631745 50.61761748 17.66657996 52.1124332 16.47265625 53.609375 C15.8811377 54.34607422 15.28961914 55.08277344 14.68017578 55.84179688 C11.53712931 59.87907249 8.7809481 64.17002148 6 68.4609375 C3.36258397 71.80921957 0.96449089 73.72835033 -3.31640625 74.3203125 C-5.70648282 74.11247976 -7.73973033 73.81763543 -10 73 C-12.0625 70.1875 -12.0625 70.1875 -12.90234375 68.31640625 C-14.3691816 65.22090858 -16.22660476 62.47429089 -18.125 59.625 C-18.80820312 58.58601563 -19.49140625 57.54703125 -20.1953125 56.4765625 C-21.76267426 53.9272108 -21.76267426 53.9272108 -24 53 C-25 51.33333333 -26 49.66666667 -27 48 C-27.66 47.67 -28.32 47.34 -29 47 C-31.38921882 42.63114272 -32.55603 38.42164764 -31.1875 33.5625 C-29.33047063 29.00648304 -26.48285632 25.4801707 -23.31640625 21.75390625 C-21.62928177 19.74813431 -20.03153298 17.74781293 -18.46484375 15.65234375 C-18.03437744 15.07774414 -17.60391113 14.50314453 -17.16040039 13.91113281 C-15.93576981 12.2689881 -14.71390574 10.62478133 -13.4921875 8.98046875 C-9.88557352 4.66722978 -5.94199079 0 0 0 Z M-9 10 C-10.81258828 12.16902713 -12.41882156 14.24198302 -14 16.5625 C-14.42716309 17.17730225 -14.85432617 17.79210449 -15.29443359 18.42553711 C-22.74991145 28.36136924 -22.74991145 28.36136924 -25 40 C-23.17279538 43.78975772 -21.70963401 46.31545406 -18.6796875 49.23828125 C-15.54495953 52.46897028 -13.2333904 55.91149697 -10.8125 59.6875 C-7.73132485 64.59531871 -7.73132485 64.59531871 -4 69 C-1.99800794 69.01039228 -1.99800794 69.01039228 0 68 C1.7689754 66.04660388 1.7689754 66.04660388 3.3125 63.5625 C3.91449219 62.66015625 4.51648438 61.7578125 5.13671875 60.828125 C5.75160156 59.89484375 6.36648437 58.9615625 7 58 C8.20249411 56.26676755 9.41065584 54.53745074 10.625 52.8125 C11.48158203 51.575 11.48158203 51.575 12.35546875 50.3125 C13.38265101 48.86810119 14.4432334 47.44623736 15.55078125 46.0625 C17.75730776 43.2779257 18.97580532 41.10887607 19.75 37.625 C18.82001359 33.13006569 16.92206086 30.91519601 14 27.45703125 C11.91083549 24.89046001 10.1798656 22.24939805 8.4375 19.4375 C4.13087017 12.41652889 4.13087017 12.41652889 -1 6 C-4.40584404 6 -6.34283252 7.99084273 -9 10 Z " fill="#312D2F" transform="translate(62,160)"/>
<path d="M0 0 C-2.97927936 2.49875043 -6.03393324 4.67395254 -9.3125 6.75 C-18.10336019 12.57156798 -25.96673715 20.2797574 -28.1875 30.875 C-28.30480469 31.61492187 -28.42210937 32.35484375 -28.54296875 33.1171875 C-29 35 -29 35 -31 37 C-31.04092937 39.33297433 -31.04241723 41.66705225 -31 44 C-31.495 44.495 -31.495 44.495 -32 45 C-32.33093645 51.71606334 -32.23096866 58.38354345 -31 65 C-30.34 65 -29.68 65 -29 65 C-29.0928125 66.11375 -29.0928125 66.11375 -29.1875 67.25 C-28.9631595 70.54032736 -27.9513873 71.42416876 -26 74 C-25.3125 77.25 -25.3125 77.25 -25 80 C-24.01 80.33 -23.02 80.66 -22 81 C-21.30062468 82.31647119 -20.63270867 83.65022151 -20 85 C-19.34 85.33 -18.68 85.66 -18 86 C-17.649375 86.721875 -17.29875 87.44375 -16.9375 88.1875 C-13.51094349 93.16153364 -7.97535612 96.85665168 -2 98 C-2 98.99 -2 99.98 -2 101 C6.88656131 103.70460562 15.74368797 105.25161733 25 106 C24.505 107.485 24.505 107.485 24 109 C22.52168779 109.19412181 21.04230684 109.38012131 19.5625 109.5625 C18.73878906 109.66691406 17.91507813 109.77132812 17.06640625 109.87890625 C16.04353516 109.93884766 16.04353516 109.93884766 15 110 C14.67 109.67 14.34 109.34 14 109 C11.98091873 108.77532028 9.95956185 108.57105109 7.9375 108.375 C-5.53084951 106.494099 -16.66913438 100.98972445 -26 91 C-26.59296875 90.39027344 -27.1859375 89.78054687 -27.796875 89.15234375 C-37.29376222 78.8327064 -39.56468047 65.75333855 -39.4375 52.125 C-39.42920166 50.97894287 -39.42090332 49.83288574 -39.41235352 48.65209961 C-39.11780737 33.92793695 -34.92892056 22.23444664 -24.75 11.25 C-18.12718486 5.01764562 -9.26608714 -2.1059289 0 0 Z " fill="#2C2C2D" transform="translate(39,146)"/>
<path d="M0 0 C2.078125 1.0703125 2.078125 1.0703125 4 2.3828125 C6.18993519 3.36246502 6.18993519 3.36246502 8.671875 1.953125 C10.11046875 1.08300781 10.11046875 1.08300781 11.578125 0.1953125 C17.70195286 -3.02736126 23.22574985 -4.94393034 30.078125 -2.9296875 C34.87967102 1.12935141 37.54772724 5.88792595 38.578125 12.0703125 C38.34746727 22.07981531 27.76750426 31.01405802 21.05297852 37.61694336 C19.49966287 39.14855156 17.96921814 40.70076471 16.43945312 42.25585938 C15.44399024 43.24868281 14.44728926 44.24026676 13.44921875 45.23046875 C12.56161865 46.11355713 11.67401855 46.99664551 10.75952148 47.90649414 C7.9190382 50.19869148 5.58540883 51.15211311 2.078125 52.0703125 C1.66780029 51.58852539 1.25747559 51.10673828 0.8347168 50.61035156 C-3.60736249 45.45661972 -8.27017691 40.60044057 -13.109375 35.8203125 C-13.80740234 35.12679687 -14.50542969 34.43328125 -15.22460938 33.71875 C-19.23945546 29.73015416 -19.23945546 29.73015416 -23.30078125 25.7890625 C-26.67896482 22.2073739 -28.09084108 17.85068277 -28.359375 13.0078125 C-27.73305301 7.3709146 -25.57181372 4.55525735 -21.421875 0.8203125 C-13.95933475 -4.40346567 -7.99829102 -3.88406218 0 0 Z M-20.8515625 5.01171875 C-22.62492736 8.42253365 -22.70670865 11.41482606 -21.921875 15.0703125 C-19.0639386 23.23584508 -12.84239816 28.98597209 -6.921875 35.0703125 C-5.75591797 36.27880859 -5.75591797 36.27880859 -4.56640625 37.51171875 C-1.49412885 40.64163738 1.51801029 43.49607571 5.078125 46.0703125 C15.50659737 41.4092797 24.95722953 30.14281764 30.078125 20.0703125 C31.40393759 15.81241436 31.79339339 11.4798242 31.078125 7.0703125 C28.54844026 3.78855932 27.00081169 2.37787473 23.078125 1.0703125 C16.95714494 0.48175672 14.02483819 1.740794 9.078125 5.0703125 C8.541875 5.6684375 8.005625 6.2665625 7.453125 6.8828125 C6.078125 8.0703125 6.078125 8.0703125 3.765625 8.0703125 C0.20024708 6.74366025 -2.09763644 4.58756861 -4.921875 2.0703125 C-8.0644268 -0.02472203 -10.08337492 -0.53796384 -13.84765625 -0.43359375 C-17.22009525 0.38569934 -18.83715428 2.2763065 -20.8515625 5.01171875 Z " fill="#332E30" transform="translate(191.921875,39.9296875)"/>
<path d="M0 0 C9.82928818 0.33649815 18.42671074 9.40729084 24.8203125 16.234375 C36.02688562 29.11460701 37.40413849 44.54689321 36.7578125 60.89355469 C35.89821889 72.63990131 29.12194628 83.47213772 21.375 92.06640625 C18.48915236 94.44847445 16.24462907 94.5625 12.5625 94.5625 C13.5525 94.0675 13.5525 94.0675 14.5625 93.5625 C15.69600534 91.54580173 15.69600534 91.54580173 16.5625 89.5625 C17.2225 89.5625 17.8825 89.5625 18.5625 89.5625 C18.94921875 88.52416016 18.94921875 88.52416016 19.34375 87.46484375 C20.70838299 84.21509275 22.37437849 81.21869725 24.0625 78.125 C30.0637227 66.43832736 31.16592981 52.43712554 28.5625 39.5625 C26.9749631 35.26094042 24.9178275 31.48218681 22.5625 27.5625 C22.06492188 26.50417969 21.56734375 25.44585937 21.0546875 24.35546875 C19.71845414 21.32522865 19.71845414 21.32522865 16.5625 19.5625 C16.129375 18.799375 15.69625 18.03625 15.25 17.25 C12.09482672 12.22509441 7.99866293 9.61942651 2.5625 7.5625 C1.5625 6.5625 0.5625 5.5625 -0.4375 4.5625 C-3.03665538 3.37222016 -3.03665538 3.37222016 -5.4375 2.5625 C-3.4375 0.5625 -3.4375 0.5625 0 0 Z " fill="#2C2C2C" transform="translate(219.4375,144.4375)"/>
<path d="M0 0 C0.33 0.33 0.66 0.66 1 1 C2.68608966 1.07205511 4.37500659 1.08386068 6.0625 1.0625 C6.98160156 1.05347656 7.90070313 1.04445312 8.84765625 1.03515625 C9.55792969 1.02355469 10.26820313 1.01195312 11 1 C11.495 2.485 11.495 2.485 12 4 C14.64 4 17.28 4 20 4 C20 4.66 20 5.32 20 6 C16.11651516 7.29449495 13.09302664 7.13203312 9 7 C8.505 6.505 8.505 6.505 8 6 C0.20987611 4.72525245 -7.64862269 3.71122594 -15 7 C-18.66113856 7.80619011 -21.90416464 8.41093826 -25.5 7.0625 C-25.995 6.711875 -26.49 6.36125 -27 6 C-22.92135283 3.11260181 -19.18359759 2.35691266 -14.3125 1.875 C-9.38683656 1.33970388 -4.90480036 -0.25152822 0 0 Z " fill="#555759" transform="translate(199,139)"/>
<path d="M0 0 C0.78503906 0.05542969 1.57007813 0.11085937 2.37890625 0.16796875 C4.4375 0.8125 4.4375 0.8125 5.71484375 2.86328125 C5.95332031 3.50652344 6.19179687 4.14976563 6.4375 4.8125 C-6.93143204 13.8125 -6.93143204 13.8125 -9.5625 13.8125 C-10.45638075 9.74940569 -10.77482802 7.38578566 -9.3125 3.4375 C-6.73637791 -0.42668314 -4.33126729 -0.37818314 0 0 Z " fill="#525860" transform="translate(59.5625,32.1875)"/>
<path d="M0 0 C0 0.66 0 1.32 0 2 C0.66 1.67 1.32 1.34 2 1 C3.99960012 0.960008 6.00047242 0.95653201 8 1 C8 1.99 8 2.98 8 4 C3.79148081 4.82025112 -0.03420361 5.03171415 -4.3125 4.875 C-9.45525368 4.81071558 -13.18488976 5.52118779 -17.921875 7.3984375 C-21.45945694 8.42247438 -24.43215686 7.71356863 -28 7 C-27.67 6.01 -27.34 5.02 -27 4 C-21.01742756 2.68892561 -15.14031748 1.7197398 -9.03125 1.24609375 C-5.78100059 0.85231353 -3.43993257 -0.09052454 0 0 Z " fill="#2C2C2C" transform="translate(63,139)"/>
<path d="M0 0 C3.10854455 0.36652988 5.97847156 0.5625 9.125 0.5625 C9.125 1.8825 9.125 3.2025 9.125 4.5625 C5.84689013 5.65520329 3.72984507 5.29618723 0.3671875 4.828125 C-4.91881679 4.20190846 -9.90335117 4.17690003 -15.0625 5.5625 C-18.54720582 6.4765212 -21.30258402 6.7411208 -24.875 6.5625 C-23.84765625 4.63671875 -23.84765625 4.63671875 -21.875 2.5625 C-19.25951936 1.97059078 -16.95652218 1.59762817 -14.3125 1.375 C-0.29739178 -0.03573996 -0.29739178 -0.03573996 0 0 Z " fill="#676A6D" transform="translate(63.875,1.4375)"/>
<path d="M0 0 C0.66 0.33 1.32 0.66 2 1 C2.48315912 8.12659698 2.48315912 8.12659698 0.375 11.9375 C-2.57868866 14.50254541 -4.08698963 15.07826021 -8 15 C-11.375 13.3125 -11.375 13.3125 -14 11 C-14 9.68 -14 8.36 -14 7 C-12.35 6.34 -10.7 5.68 -9 5 C-9.66 6.98 -10.32 8.96 -11 11 C-9.68127338 10.60348083 -8.37002899 10.18201309 -7.0625 9.75 C-6.33160156 9.51796875 -5.60070312 9.2859375 -4.84765625 9.046875 C-2.81429629 8.16281591 -2.81429629 8.16281591 -2.3125 6.03125 C-2.209375 5.3609375 -2.10625 4.690625 -2 4 C-1.36345658 2.6520257 -0.70394612 1.31403276 0 0 Z " fill="#B1B6BD" transform="translate(217,194)"/>
<path d="M0 0 C0 0.99 0 1.98 0 3 C-2.1171875 5.0078125 -2.1171875 5.0078125 -4.875 7.125 C-5.77992188 7.82882813 -6.68484375 8.53265625 -7.6171875 9.2578125 C-11.64894341 12.20562092 -15.07527462 12.58395953 -20 12 C-22.5 10.5 -22.5 10.5 -24 9 C-23 6 -23 6 -20.0625 4.25 C-19.051875 3.8375 -18.04125 3.425 -17 3 C-16.34 3.33 -15.68 3.66 -15 4 C-16.375 5.5 -16.375 5.5 -18 7 C-18.66 7 -19.32 7 -20 7 C-20 7.99 -20 8.98 -20 10 C-12.74144478 7.62701079 -6.50855387 3.95937027 0 0 Z " fill="#B1B7BE" transform="translate(200,195)"/>
<path d="M0 0 C0.66 0 1.32 0 2 0 C1.77734375 1.8203125 1.77734375 1.8203125 1 4 C-0.93359375 5.4921875 -0.93359375 5.4921875 -3.4375 6.875 C-7.12249829 8.94155126 -10.69710264 11.08906907 -14.25 13.375 C-17.97717256 15.63246729 -20.54319939 16.70370536 -25 16 C-24.67 15.01 -24.34 14.02 -24 13 C-21.64595127 11.94023279 -19.36460257 11.04124448 -16.9375 10.1875 C-10.44163599 7.76597855 -4.9643461 4.9643461 0 0 Z " fill="#909398" transform="translate(236,237)"/>
<path d="M0 0 C1.65 0 3.3 0 5 0 C5.33 0.99 5.66 1.98 6 3 C8.64 3 11.28 3 14 3 C14 3.66 14 4.32 14 5 C10.11651516 6.29449495 7.09302664 6.13203312 3 6 C2.67 5.67 2.34 5.34 2 5 C-0.32817964 4.63239269 -2.6618385 4.29758419 -5 4 C-5 3.67 -5 3.34 -5 3 C-3.35 3 -1.7 3 0 3 C0 2.01 0 1.02 0 0 Z " fill="#646668" transform="translate(205,140)"/>
<path d="M0 0 C0.71542969 0.26683594 1.43085937 0.53367188 2.16796875 0.80859375 C0.69316778 4.63307763 -1.28498037 6.05901739 -4.76953125 8.12109375 C-5.64480469 8.65347656 -6.52007812 9.18585937 -7.421875 9.734375 C-9.83203125 10.80859375 -9.83203125 10.80859375 -12.83203125 9.80859375 C-11.28875351 8.10349659 -9.72166375 6.41992635 -8.14453125 4.74609375 C-7.27441406 3.80636719 -6.40429688 2.86664063 -5.5078125 1.8984375 C-2.83203125 -0.19140625 -2.83203125 -0.19140625 0 0 Z " fill="#B4BAC1" transform="translate(63.83203125,34.19140625)"/>
<path d="M0 0 C0.66 0 1.32 0 2 0 C2 0.66 2 1.32 2 2 C0.40591302 3.41471603 -1.25106865 4.75924099 -2.9375 6.0625 C-4.31228516 7.13177734 -4.31228516 7.13177734 -5.71484375 8.22265625 C-6.46894531 8.80917969 -7.22304687 9.39570312 -8 10 C-8.33 10.33 -8.66 10.66 -9 11 C-10.66617115 11.04063832 -12.33388095 11.042721 -14 11 C-12.51257063 6.8939824 -10.24570987 5.74391283 -6.4375 3.8125 C-2.99777997 2.22480062 -2.99777997 2.22480062 0 0 Z " fill="#D0BAC3" transform="translate(197,62)"/>
<path d="M0 0 C6.6 0 13.2 0 20 0 C14.375 5.625 14.375 5.625 10 6 C10 4.68 10 3.36 10 2 C6.7 2 3.4 2 0 2 C0 1.34 0 0.68 0 0 Z " fill="#6C6E71" transform="translate(54,250)"/>
<path d="M0 0 C-0.12890625 1.76171875 -0.12890625 1.76171875 -1 4 C-3.65234375 5.95703125 -3.65234375 5.95703125 -6.9375 7.8125 C-8.01902344 8.43769531 -9.10054687 9.06289063 -10.21484375 9.70703125 C-11.13394531 10.13371094 -12.05304688 10.56039062 -13 11 C-13.66 10.67 -14.32 10.34 -15 10 C-13.06980103 8.32416834 -11.13171873 6.65942545 -9.1875 5 C-8.64029297 4.52304687 -8.09308594 4.04609375 -7.52929688 3.5546875 C-3.33984375 0 -3.33984375 0 0 0 Z " fill="#D4B5C0" transform="translate(223,50)"/>
<path d="M0 0 C-3.46273075 2.86134241 -7.00686276 5.36574534 -10.8125 7.75 C-11.78832031 8.36359375 -12.76414063 8.9771875 -13.76953125 9.609375 C-14.50558594 10.06828125 -15.24164063 10.5271875 -16 11 C-16 8 -16 8 -14.0234375 5.95703125 C-13.14945313 5.24933594 -12.27546875 4.54164062 -11.375 3.8125 C-10.51648438 3.09707031 -9.65796875 2.38164063 -8.7734375 1.64453125 C-5.56632251 -0.25715243 -3.66494532 -0.32780303 0 0 Z " fill="#CCA0AC" transform="translate(211,42)"/>
<path d="M0 0 C-1 2 -1 2 -3.29296875 2.8515625 C-12.88532831 5.41470311 -12.88532831 5.41470311 -18 5 C-16.43387074 2.44096526 -15.65720626 1.17376979 -12.6953125 0.390625 C-11.84710938 0.34421875 -10.99890625 0.2978125 -10.125 0.25 C-8.86042969 0.16492188 -8.86042969 0.16492188 -7.5703125 0.078125 C-5.04490188 0.0013648 -2.52640537 -0.01811043 0 0 Z " fill="#303131" transform="translate(57,3)"/>
<path d="M0 0 C0.99 0.33 1.98 0.66 3 1 C2.81640625 2.828125 2.81640625 2.828125 2 5 C-0.28515625 6.484375 -0.28515625 6.484375 -3.0625 7.75 C-4.44115234 8.39195312 -4.44115234 8.39195312 -5.84765625 9.046875 C-6.55792969 9.36140625 -7.26820313 9.6759375 -8 10 C-6.07712966 5.70621187 -3.37521131 3.22846299 0 0 Z " fill="#A9AFB6" transform="translate(197,172)"/>
<path d="M0 0 C0.66 0.33 1.32 0.66 2 1 C0.56771184 2.31818554 -0.87102484 3.62936704 -2.3125 4.9375 C-3.11300781 5.66839844 -3.91351563 6.39929688 -4.73828125 7.15234375 C-7 9 -7 9 -10 10 C-10 8.68 -10 7.36 -10 6 C-7.8828125 4.26171875 -7.8828125 4.26171875 -5.125 2.6875 C-4.22007813 2.15511719 -3.31515625 1.62273437 -2.3828125 1.07421875 C-1.59648438 0.71972656 -0.81015625 0.36523438 0 0 Z " fill="#D2B9C3" transform="translate(53,198)"/>
<path d="M0 0 C-0.35536481 2.81228361 -0.80350348 3.82581484 -2.9609375 5.73828125 C-4.15589844 6.51751953 -4.15589844 6.51751953 -5.375 7.3125 C-6.16648437 7.84488281 -6.95796875 8.37726563 -7.7734375 8.92578125 C-10 10 -10 10 -13 9 C-11.21326795 7.4941255 -9.42046492 5.9954515 -7.625 4.5 C-6.62726563 3.6646875 -5.62953125 2.829375 -4.6015625 1.96875 C-2 0 -2 0 0 0 Z " fill="#D1BAC4" transform="translate(80,194)"/>
<path d="M0 0 C0 0.99 0 1.98 0 3 C-2.1171875 4.60546875 -2.1171875 4.60546875 -4.875 6.1875 C-5.77992187 6.71730469 -6.68484375 7.24710938 -7.6171875 7.79296875 C-10 9 -10 9 -12 9 C-10.85849612 5.57548836 -9.95548398 4.91203482 -7.125 2.8125 C-6.07699219 2.01779297 -6.07699219 2.01779297 -5.0078125 1.20703125 C-3 0 -3 0 0 0 Z " fill="#CFB9C3" transform="translate(66,172)"/>
<path d="M0 0 C0.66 0.33 1.32 0.66 2 1 C0.57084149 2.34227046 -0.86862672 3.67357096 -2.3125 5 C-3.11300781 5.7425 -3.91351563 6.485 -4.73828125 7.25 C-7 9 -7 9 -10 9 C-9.77734375 7.17578125 -9.77734375 7.17578125 -9 5 C-7.00390625 3.48046875 -7.00390625 3.48046875 -4.5625 2.1875 C-3.35787109 1.52814453 -3.35787109 1.52814453 -2.12890625 0.85546875 C-1.42636719 0.57316406 -0.72382812 0.29085937 0 0 Z " fill="#CEBFC9" transform="translate(57,205)"/>
<path d="M0 0 C2.97 0.33 5.94 0.66 9 1 C9 1.99 9 2.98 9 4 C5.01803543 5.05404945 2.01804691 4.84098656 -2 4 C-2 3.34 -2 2.68 -2 2 C-1.34 2 -0.68 2 0 2 C0 1.34 0 0.68 0 0 Z " fill="#494A4C" transform="translate(73,4)"/>
<path d="M0 0 C0.99 0.33 1.98 0.66 3 1 C3 1.66 3 2.32 3 3 C0.8828125 4.54296875 0.8828125 4.54296875 -1.875 6.1875 C-2.77992187 6.73792969 -3.68484375 7.28835937 -4.6171875 7.85546875 C-5.40351562 8.23316406 -6.18984375 8.61085937 -7 9 C-7.66 8.67 -8.32 8.34 -9 8 C-6.03 5.36 -3.06 2.72 0 0 Z " fill="#D0B7C1" transform="translate(74,187)"/>
<path d="M0 0 C-1.26257233 1.17560179 -2.53537084 2.34022865 -3.8125 3.5 C-4.87404297 4.47453125 -4.87404297 4.47453125 -5.95703125 5.46875 C-8 7 -8 7 -11 7 C-10.9375 5.25 -10.9375 5.25 -10 3 C-6.69928831 0.41203839 -4.20321079 -1.40107026 0 0 Z " fill="#AAB0B8" transform="translate(47,55)"/>
<path d="M0 0 C-1.625 2 -1.625 2 -4 4 C-7.25 4.25 -7.25 4.25 -10 4 C-9 1 -9 1 -6.6875 -0.25 C-3.90126985 -1.0275526 -2.66561622 -0.98726527 0 0 Z " fill="#A4A8AE" transform="translate(221,249)"/>
<path d="M0 0 C0.99 0.33 1.98 0.66 3 1 C3 1.66 3 2.32 3 3 C1.1015625 4.5078125 1.1015625 4.5078125 -1.375 6.125 C-2.59316406 6.93324219 -2.59316406 6.93324219 -3.8359375 7.7578125 C-6 9 -6 9 -8 9 C-8 7 -8 7 -6.35546875 5.23828125 C-5.64003906 4.60277344 -4.92460937 3.96726563 -4.1875 3.3125 C-3.47980469 2.66925781 -2.77210938 2.02601563 -2.04296875 1.36328125 C-1.36878906 0.91339844 -0.69460937 0.46351563 0 0 Z " fill="#AEB4BC" transform="translate(203,178)"/>
<path d="M0 0 C0 0.66 0 1.32 0 2 C-5.41538462 5.07692308 -5.41538462 5.07692308 -8.375 4.6875 C-8.91125 4.460625 -9.4475 4.23375 -10 4 C-9.67 3.01 -9.34 2.02 -9 1 C-5.846632 0.29925156 -3.27275026 0 0 0 Z " fill="#AAAEB4" transform="translate(74,113)"/>
<path d="M0 0 C0.66 0.33 1.32 0.66 2 1 C0.71372289 2.17260611 -0.57919783 3.3379283 -1.875 4.5 C-2.59429687 5.1496875 -3.31359375 5.799375 -4.0546875 6.46875 C-6 8 -6 8 -8 8 C-7.9375 6.25 -7.9375 6.25 -7 4 C-4.74876994 2.27481113 -2.59865097 1.23093993 0 0 Z " fill="#A9AFB7" transform="translate(182,190)"/>
<path d="M0 0 C0 1.32 0 2.64 0 4 C-1.6796875 5.51953125 -1.6796875 5.51953125 -3.875 6.8125 C-4.95394531 7.47185547 -4.95394531 7.47185547 -6.0546875 8.14453125 C-6.69664063 8.42683594 -7.33859375 8.70914063 -8 9 C-8.66 8.67 -9.32 8.34 -10 8 C-8.71451591 6.66070495 -7.42141845 5.32871357 -6.125 4 C-5.04605469 2.88625 -5.04605469 2.88625 -3.9453125 1.75 C-2 0 -2 0 0 0 Z " fill="#AEB3BA" transform="translate(69,41)"/>
<path d="M0 0 C-1.43457328 0.9834496 -2.87277406 1.96160921 -4.3125 2.9375 C-5.11300781 3.48277344 -5.91351563 4.02804688 -6.73828125 4.58984375 C-9 6 -9 6 -12 7 C-12 6.01 -12 5.02 -12 4 C-10.56988027 3.13353333 -9.13059381 2.28218171 -7.6875 1.4375 C-6.48673828 0.72400391 -6.48673828 0.72400391 -5.26171875 -0.00390625 C-3 -1 -3 -1 0 0 Z " fill="#3C3D3E" transform="translate(234,240)"/>
<path d="M0 0 C0.99 0.33 1.98 0.66 3 1 C2.00233891 3.49415272 1.31383315 4.78740335 -0.9375 6.3125 C-3 7 -3 7 -6 6 C-4.02 4.02 -2.04 2.04 0 0 Z " fill="#C1C6CE" transform="translate(63,34)"/>
<path d="M0 0 C0 1.32 0 2.64 0 4 C-2.99531539 4.99843846 -4.17255732 5.00732761 -7.1875 4.5625 C-8.445625 4.376875 -9.70375 4.19125 -11 4 C-11 3.67 -11 3.34 -11 3 C-9.35 3 -7.7 3 -6 3 C-6 2.34 -6 1.68 -6 1 C-4 0 -4 0 0 0 Z " fill="#717478" transform="translate(73,2)"/>
<path d="M0 0 C0 0.66 0 1.32 0 2 C-1.64453125 3.5078125 -1.64453125 3.5078125 -3.8125 5.125 C-4.52019531 5.66382812 -5.22789062 6.20265625 -5.95703125 6.7578125 C-8 8 -8 8 -11 8 C-9.83630874 4.50892621 -9.11026462 4.14777237 -6.0625 2.3125 C-5.35222656 1.87550781 -4.64195312 1.43851563 -3.91015625 0.98828125 C-2 0 -2 0 0 0 Z " fill="#D2B3BD" transform="translate(189,60)"/>
<path d="M0 0 C0 0.99 0 1.98 0 3 C-1.45264038 3.8638129 -2.9123163 4.71580454 -4.375 5.5625 C-5.59316406 6.27599609 -5.59316406 6.27599609 -6.8359375 7.00390625 C-7.55007812 7.33261719 -8.26421875 7.66132812 -9 8 C-9.66 7.67 -10.32 7.34 -11 7 C-9.54634731 5.82750647 -8.08692581 4.66216184 -6.625 3.5 C-5.40683594 2.52546875 -5.40683594 2.52546875 -4.1640625 1.53125 C-2 0 -2 0 0 0 Z " fill="#D2B4BE" transform="translate(220,43)"/>
<path d="M0 0 C0.66 0.33 1.32 0.66 2 1 C1.34 2.65 0.68 4.3 0 6 C0.66 6.33 1.32 6.66 2 7 C1.01 7.33 0.02 7.66 -1 8 C-1.99 7.01 -2.98 6.02 -4 5 C-3 2 -3 2 0 0 Z " fill="#A9AFB7" transform="translate(206,199)"/>
<path d="M0 0 C0.66 0.33 1.32 0.66 2 1 C-0.25 3.5 -0.25 3.5 -3 6 C-4.32 6 -5.64 6 -7 6 C-7 5.34 -7 4.68 -7 4 C-1.7265625 0.77734375 -1.7265625 0.77734375 0 0 Z " fill="#D1BCC5" transform="translate(200,76)"/>
<path d="M0 0 C1.98 0 3.96 0 6 0 C6 0.99 6 1.98 6 3 C4.02 3.33 2.04 3.66 0 4 C0 2.68 0 1.36 0 0 Z " fill="#7D8083" transform="translate(65,140)"/>
<path d="M0 0 C-0.3125 1.875 -0.3125 1.875 -1 4 C-1.99 4.66 -2.98 5.32 -4 6 C-4.99 5.67 -5.98 5.34 -7 5 C-2.25 0 -2.25 0 0 0 Z " fill="#B5BBC2" transform="translate(200,173)"/>
<path d="M0 0 C0.99 0 1.98 0 3 0 C2.67 1.32 2.34 2.64 2 4 C0.35 4.33 -1.3 4.66 -3 5 C-1.125 1.125 -1.125 1.125 0 0 Z " fill="#CDC5CD" transform="translate(220,50)"/>
<path d="M0 0 C-2 3 -2 3 -4.625 3.6875 C-5.800625 3.8421875 -5.800625 3.8421875 -7 4 C-7 3.01 -7 2.02 -7 1 C-4.53721199 -0.231394 -2.7204945 -0.07159196 0 0 Z " fill="#3D3E3F" transform="translate(189,226)"/>
<path d="M0 0 C-0.33 0.99 -0.66 1.98 -1 3 C-1.66 3 -2.32 3 -3 3 C-3.33 3.66 -3.66 4.32 -4 5 C-4.99 4.67 -5.98 4.34 -7 4 C-7 3.34 -7 2.68 -7 2 C-4.35261084 0.5393715 -3.10551666 0 0 0 Z " fill="#989BA0" transform="translate(42,4)"/>
<path d="M0 0 C-4.625 3 -4.625 3 -8 3 C-8 2.01 -8 1.02 -8 0 C-4.71303767 -0.79953138 -3.28976808 -1.09658936 0 0 Z " fill="#A7ACB2" transform="translate(72,253)"/>
<path d="M0 0 C0.66 0.33 1.32 0.66 2 1 C-0.97 3.475 -0.97 3.475 -4 6 C-4.66 5.01 -5.32 4.02 -6 3 C-4.03533587 1.93224776 -2.03144641 0.93446535 0 0 Z " fill="#D3B5C0" transform="translate(57,205)"/>
<path d="M0 0 C2.31 0 4.62 0 7 0 C6.01 1.485 6.01 1.485 5 3 C3.35 2.67 1.7 2.34 0 2 C0 1.34 0 0.68 0 0 Z " fill="#9EA2A8" transform="translate(193,253)"/>
<path d="M0 0 C0 0.66 0 1.32 0 2 C-2.31 2.66 -4.62 3.32 -7 4 C-6.67 3.01 -6.34 2.02 -6 1 C-4 0 -4 0 0 0 Z " fill="#9EA3A7" transform="translate(42,142)"/>
<path d="M0 0 C1.65 0 3.3 0 5 0 C5 0.99 5 1.98 5 3 C3.02 3 1.04 3 -1 3 C-0.67 2.01 -0.34 1.02 0 0 Z " fill="#8F9397" transform="translate(58,139)"/>
</svg>
